#define washing_machine_width 24
#define washing_machine_height 24
static unsigned char washing_machine_bits[] = {
   0x00, 0x00, 0x00, 0x00, 0x00, 0x00, 0xe0, 0xff, 0x07, 0xf0, 0xff, 0x0f,
   0x30, 0xf9, 0x0f, 0x30, 0xf9, 0x0f, 0xf0, 0xff, 0x0f, 0xf0, 0xff, 0x0f,
   0xf0, 0xc3, 0x0f, 0xf0, 0x00, 0x0f, 0x70, 0x00, 0x0e, 0x70, 0x00, 0x0e,
   0x30, 0xe0, 0x0c, 0x30, 0xf0, 0x0c, 0x30, 0xf8, 0x0c, 0x30, 0xfc, 0x0c,
   0x70, 0x7c, 0x0e, 0x70, 0x3c, 0x0e, 0xf0, 0x00, 0x0f, 0xf0, 0xc3, 0x0f,
   0xf0, 0xff, 0x0f, 0xe0, 0xff, 0x07, 0x00, 0x00, 0x00, 0x00, 0x00, 0x00 };
